# xmcd CD database file
# Generated: fre okt 24 07:35:56 2003 by KSCD
# 
# Track frame offsets:
#       150
#       8730
#       19797
#       29290
#       39600
#       48740
#       56192
#       66412
#       75982
#       92970
#       101967
#       111500
#       122787
#       131732
#       147555
#       158760
#       169137
#       179722
#       204205
#
# Disc length: 3424 seconds
#
# Revision: 2
# Processed by: cddbd v1.4PL0 Copyright (c) Steve Scherf et al.
# Submitted via: Kscd 1.3.3
#
DISCID=1a0d5e13
DTITLE=Hank Williams - Alone With His Guitar
DYEAR=1900
DGENRE=
TTITLE0=Tenessee Border
TTITLE1=First Year Blues
TTITLE2=Blue Love
TTITLE3=Please Don't Let Me Love You
TTITLE4=Alone and Forsaken
TTITLE5=You Caused It All By Telling Lies
TTITLE6=With Tears In My Ears
TTITLE7=Rockin' Chair Money
TTITLE8=Cool Water
TTITLE9=We Live in Two Different Worlds
TTITLE10=My Buckets Got a Hole In It
TTITLE11=A Teardrop On A Rose
TTITLE12=Honky Tonk Blues
TTITLE13=Thy Burdens Are Greater Than Mine
TTITLE14=Weary Blues From Waitin'
TTITLE15=I Can't Escape From You
TTITLE16=I Could Never Be Ashamed of You
TTITLE17=Kaw-Liga
TTITLE18=
EXTD=
EXTT0=
EXTT1=
EXTT2=
EXTT3=
EXTT4=
EXTT5=
EXTT6=
EXTT7=
EXTT8=
EXTT9=
EXTT10=
EXTT11=
EXTT12=
EXTT13=
EXTT14=
EXTT15=
EXTT16=
EXTT17=
EXTT18=
PLAYORDER=
